<svg width="1000" height="1000" viewBox="0 0 1000 1000" xmlns="http://www.w3.org/2000/svg"><defs/><path fill="#ed3926" transform="matrix(2.1886800021297077 0 0 2.1886800021297073 -76.24089264352358 24.647829614853528)" d="M 225.43952514855 229.40312147683 C 227.18384999741 216.4239407743 224.76069335367 203.22614107739 218.51952514855 191.71312147683 C 217.66214897207 190.08389944086 215.99324147913 189.04323451074 214.15295446348 188.99030011254 C 212.31266744782 188.93736571433 210.58670099982 189.8803797848 209.63709332248 191.45762536164 C 208.68748564515 193.03487093847 208.66166102444 195.00148447593 209.56952514855 196.60312147683 C 220.35091372034 216.53822657673 216.80012467995 241.18249009968 200.82952514855 257.26312147683 C 196.13435476475 261.96643845404 190.56260078544 265.70359051332 184.42952514855 268.26312147683 C 182.74210010108 268.95764265081 180.83032056555 268.84651401338 179.23473129554 267.96115655258 C 177.63914202553 267.07579909179 176.53317097559 265.51244417264 176.22952514855 263.71312147683 L 176.22952514855 263.71312147683 C 175.76791627029 260.91925618598 177.29295079909 258.17585168037 179.90952514855 257.09312147683 C 198.36175012713 249.26508237329 207.89991601296 228.74593021854 201.98952514855 209.59312147683 C 201.07841537688 207.01339526924 198.29406831242 205.61214696036 195.67939187411 206.41748877914 C 193.0647154358 207.22283059793 191.55128633162 209.94782926676 192.24952514855 212.59312147683 C 196.13006274925 225.28189368467 190.86180638168 238.98195951749 179.47948878418 245.80151656488 C 168.09717118668 252.62107361227 153.53199610134 250.80393198009 144.17410451355 241.39684012106 C 134.81621292575 231.98974826204 133.07547317781 217.41524469904 139.9546230891 206.06884400495 C 146.83377300039 194.72244331085 160.56127616898 189.52609981429 173.22952514855 193.47312147683 C 175.92467474166 194.30154864402 178.78109807935 192.78827110006 179.60952521168 190.09312149623 C 180.437952344 187.39797189241 178.92467476309 184.54154857429 176.22952514855 183.71312147683 C 157.07916895367 177.8009804369 136.5623122518 187.34641776934 128.74952514855 205.80312147683 C 127.66679494501 208.41969582629 124.9233904394 209.94473035509 122.12952514855 209.48312147683 L 122.12952514855 209.48312147683 C 120.32472992767 209.18735150406 118.75337377519 208.08458204289 117.86156105838 206.48788678573 C 116.96974834157 204.89119152857 116.85486463207 202.97492892242 117.54952514855 201.28312147683 C 120.10836849531 195.14967636999 123.84560543124 189.57779584732 128.54952514855 184.88312147683 C 144.63323351739 168.91869426147 169.27321067638 165.36852280797 189.20952514855 176.14312147683 C 191.67823798029 177.49345769017 194.77418893521 176.58683430857 196.12452514855 174.11812147683 C 197.47486136189 171.64940864509 196.56823798029 168.55345769017 194.09952514855 167.20312147683 C 182.57833272403 160.95431110033 169.36856581996 158.530886207 156.37952514855 160.28312147683 C 131.4043051169 163.70670212662 111.06894160765 182.06644897032 105.11952514855 206.56312147683 C 99.74292200772 228.59298730617 106.95885338759 251.79194641348 123.88250326228 266.88541933099 C 140.80615313697 281.97889224851 164.67627245016 286.50424011531 185.94996242561 278.65229993336 C 207.22365240107 270.80035975141 222.42991495008 251.85224774436 225.48952514855 229.38312147683 Z"/><path fill="#127ac1" transform="matrix(2.1886800021297077 0 0 2.1886800021297073 -76.24089264352358 24.647829614853528)" d="M 179.22952514855 208.78312147683 L 205.54952514855 182.46312147683 C 208.06077290389 180.0135495491 211.72327922264 179.1585796198 215.05952514855 180.24312147683 C 221.42782664631 182.20626889291 228.31370176557 179.56949704426 231.74203425586 173.85497623499 C 235.17036674615 168.14045542571 234.25580282188 160.82393885235 229.52630702707 156.12914585687 C 224.79681123225 151.43435286138 217.47375781158 150.57369582294 211.78463973455 154.04401961897 C 206.09552165752 157.514343415 203.509531962 164.4194501654 205.51952514855 170.77312147683 C 206.6040324182 174.03415508894 205.77412592331 177.62784321332 203.36952514855 180.08312147683 L 177.04952514855 206.40312147683 C 174.54479724057 208.85711416936 170.8823906353 209.71296076554 167.54952514855 208.62312147683 C 161.17746619294 206.6507025804 154.28210408943 209.28318137678 150.84569420867 215.0002312076 C 147.40928432791 220.71728103842 148.31974852844 228.04169351257 153.05126947132 232.7434252365 C 157.78279041419 237.44515696043 165.1128070502 238.3093440164 170.80803943298 234.8368953497 C 176.50327181576 231.364446683 179.09214888782 224.45259608727 177.07952514855 218.09312147683 C 175.9950178789 214.83208786472 176.82492437379 211.23839974034 179.22952514855 208.78312147683 Z"/><path id="text" fill="#333333" transform="matrix(1.998978577077852 0 0 1.9989785770778519 408.6843867448438 176.61876975595408)" d="M 54.27055668114 196.54596183974 L 45.40692031751 196.54596183974 L 71.04328395387 126.72778002156 L 79.77055668114 126.72778002156 L 105.40692031751 196.54596183974 L 96.54328395387 196.54596183974 L 75.67964759023 137.77323456701 L 75.13419304478 137.77323456701 L 54.27055668114 196.54596183974 Z M 57.54328395387 169.27323456701 L 93.27055668114 169.27323456701 L 93.27055668114 176.77323456701 L 57.54328395387 176.77323456701 L 57.54328395387 169.27323456701 Z M 134.99782940841 197.50050729429 C 130.40692031751 197.50050729429 126.45237486296 196.65959820338 123.13419304478 194.97778002156 C 119.8160112266 193.29596183974 117.25919304478 190.98914365792 115.46373849932 188.0573254761 C 113.66828395387 185.12550729429 112.77055668114 181.77323456701 112.77055668114 178.00050729429 C 112.77055668114 175.09141638519 113.38987486296 172.50618911247 114.6285112266 170.2448254761 C 115.86714759023 167.98346183974 117.58305668114 165.88118911247 119.77623849932 163.93800729429 C 121.96942031751 161.9948254761 124.49782940841 160.04596183974 127.36146577205 158.09141638519 L 137.45237486296 150.59141638519 C 139.42964759023 149.29596183974 141.01487486296 147.90959820338 142.20805668114 146.4323254761 C 143.40123849932 144.95505274883 143.99782940841 143.02323456701 143.99782940841 140.63687093065 C 143.99782940841 138.86414365792 143.21942031751 137.14823456701 141.66260213569 135.48914365792 C 140.10578395387 133.83005274883 138.0660112266 133.00050729429 135.54328395387 133.00050729429 C 133.77055668114 133.00050729429 132.20805668114 133.44937093065 130.85578395387 134.34709820338 C 129.5035112266 135.2448254761 128.44669304478 136.38118911247 127.68532940841 137.75618911247 C 126.92396577205 139.13118911247 126.54328395387 140.54596183974 126.54328395387 142.00050729429 C 126.54328395387 143.63687093065 126.99214759023 145.29028002156 127.88987486296 146.96073456701 C 128.78760213569 148.63118911247 129.93532940841 150.33573456701 131.33305668114 152.07437093065 C 132.73078395387 153.81300729429 134.17964759023 155.59141638519 135.67964759023 157.40959820338 L 167.72510213569 196.54596183974 L 158.04328395387 196.54596183974 L 131.58873849932 164.63687093065 C 129.13419304478 161.6823254761 126.90692031751 159.00050729429 124.90692031751 156.59141638519 C 122.90692031751 154.1823254761 121.3160112266 151.8073254761 120.13419304478 149.46641638519 C 118.95237486296 147.12550729429 118.36146577205 144.59141638519 118.36146577205 141.86414365792 C 118.36146577205 138.72778002156 119.06032940841 135.97209820338 120.45805668114 133.59709820338 C 121.85578395387 131.22209820338 123.82169304478 129.3698254761 126.35578395387 128.04028002156 C 128.88987486296 126.71073456701 131.86146577205 126.04596183974 135.27055668114 126.04596183974 C 138.77055668114 126.04596183974 141.78192031751 126.72209820338 144.30464759023 128.07437093065 C 146.82737486296 129.42664365792 148.77055668114 131.21073456701 150.13419304478 133.42664365792 C 151.49782940841 135.64255274883 152.17964759023 138.04596183974 152.17964759023 140.63687093065 C 152.17964759023 143.97778002156 151.35010213569 146.87550729429 149.6910112266 149.33005274883 C 148.03192031751 151.78459820338 145.77055668114 154.06868911247 142.90692031751 156.1823254761 L 128.99782940841 166.54596183974 C 125.86146577205 168.86414365792 123.73646577205 171.11414365792 122.62282940841 173.29596183974 C 121.50919304478 175.47778002156 120.95237486296 177.04596183974 120.95237486296 178.00050729429 C 120.95237486296 180.1823254761 121.52055668114 182.21641638519 122.65692031751 184.10278002156 C 123.79328395387 185.98914365792 125.39555668114 187.51187093065 127.46373849932 188.67096183974 C 129.53192031751 189.83005274883 131.95237486296 190.40959820338 134.72510213569 190.40959820338 C 137.36146577205 190.40959820338 139.92964759023 189.84709820338 142.42964759023 188.72209820338 C 144.92964759023 187.59709820338 147.19669304478 185.96641638519 149.23078395387 183.83005274883 C 151.26487486296 181.69368911247 152.8785112266 179.12550729429 154.07169304478 176.12550729429 C 155.26487486296 173.12550729429 155.86146577205 169.75050729429 155.86146577205 166.00050729429 L 163.63419304478 166.00050729429 C 163.63419304478 170.63687093065 163.10010213569 174.42096183974 162.03192031751 177.35278002156 C 160.96373849932 180.28459820338 159.75919304478 182.58005274883 158.41828395387 184.23914365792 C 157.07737486296 185.89823456701 155.99782940841 187.13687093065 155.17964759023 187.95505274883 C 154.90692031751 188.29596183974 154.65692031751 188.63687093065 154.42964759023 188.97778002156 C 154.20237486296 189.31868911247 153.95237486296 189.65959820338 153.67964759023 190.00050729429 C 151.42964759023 192.52323456701 148.58873849932 194.40391638519 145.15692031751 195.64255274883 C 141.72510213569 196.88118911247 138.33873849932 197.50050729429 134.99782940841 197.50050729429 Z M 168.40692031751 134.22778002156 L 168.40692031751 126.72778002156 L 220.77055668114 126.72778002156 L 220.77055668114 134.22778002156 L 198.8160112266 134.22778002156 L 198.8160112266 196.54596183974 L 190.36146577205 196.54596183974 L 190.36146577205 134.22778002156 L 168.40692031751 134.22778002156 Z"/></svg>